<svg width="20" height="20" viewBox="0 0 20 20" fill="none" xmlns="http://www.w3.org/2000/svg">
<path d="M1.66663 10C1.66663 6.07165 1.66663 4.10746 2.88701 2.88708C4.1074 1.66669 6.07159 1.66669 9.99996 1.66669C13.9283 1.66669 15.8925 1.66669 17.1129 2.88708C18.3333 4.10746 18.3333 6.07165 18.3333 10C18.3333 13.9284 18.3333 15.8926 17.1129 17.113C15.8925 18.3334 13.9283 18.3334 9.99996 18.3334C6.07159 18.3334 4.1074 18.3334 2.88701 17.113C1.66663 15.8926 1.66663 13.9284 1.66663 10Z" stroke="#838383"/>
<path d="M5.83337 15L5.83337 12.5" stroke="#838383" stroke-linecap="round"/>
<path d="M10 15V10" stroke="#838383" stroke-linecap="round"/>
<path d="M14.1666 15V7.5" stroke="#838383" stroke-linecap="round"/>
</svg>
