<svg width="20" height="20" viewBox="0 0 20 20" fill="none" xmlns="http://www.w3.org/2000/svg">
<path d="M10 20C15.5228 20 20 15.5228 20 10C20 4.47715 15.5228 0 10 0C4.47715 0 0 4.47715 0 10C0 15.5228 4.47715 20 10 20Z" fill="#5F7EDD"/>
<path d="M9.99892 12.724L6.63892 10.739L9.99892 15.475L13.3619 10.739L9.99892 12.724Z" fill="white"/>
<path d="M13.3599 10.102L9.99894 12.088L6.63794 10.102L9.99894 4.525L13.3599 10.102Z" fill="white"/>
<path d="M13.36 10.102L9.99902 8.57401V4.52501L13.36 10.102Z" fill="#C1CCF7"/>
<path d="M13.362 10.739L9.99902 15.475V12.724L13.362 10.739Z" fill="#C1CCF7"/>
<path d="M9.99892 8.57401V12.088L6.63892 10.102L9.99892 8.57401Z" fill="#C1CCF7"/>
<path d="M13.36 10.102L9.99902 12.088V8.574L13.36 10.102Z" fill="#8198EE"/>
</svg>
