<svg width="20" height="20" viewBox="0 0 20 20" fill="none" xmlns="http://www.w3.org/2000/svg">
<path d="M4.14898 8.07088C2.49408 7.40892 1.66663 7.07794 1.66663 6.66665C1.66663 6.25536 2.49408 5.92437 4.14898 5.26241L6.48937 4.32626C8.14428 3.66429 8.97173 3.33331 9.99996 3.33331C11.0282 3.33331 11.8556 3.66429 13.5105 4.32626L15.8509 5.26241C17.5058 5.92437 18.3333 6.25536 18.3333 6.66665C18.3333 7.07794 17.5058 7.40892 15.8509 8.07088L13.5105 9.00704C11.8556 9.669 11.0282 9.99998 9.99996 9.99998C8.97173 9.99998 8.14428 9.669 6.48937 9.00704L4.14898 8.07088Z" stroke="#838383"/>
<path d="M18.3333 10C18.3333 10 17.5058 10.7423 15.8509 11.4042L13.5105 12.3404C11.8556 13.0024 11.0282 13.3333 9.99996 13.3333C8.97173 13.3333 8.14428 13.0024 6.48937 12.3404L4.14898 11.4042C2.49408 10.7423 1.66663 10 1.66663 10" stroke="#838383" stroke-linecap="round"/>
<path d="M18.3333 13.3333C18.3333 13.3333 17.5058 14.0756 15.8509 14.7375L13.5105 15.6737C11.8556 16.3357 11.0282 16.6666 9.99996 16.6666C8.97173 16.6666 8.14428 16.3357 6.48937 15.6737L4.14898 14.7375C2.49408 14.0756 1.66663 13.3333 1.66663 13.3333" stroke="#838383" stroke-linecap="round"/>
</svg>
