<svg width="20" height="20" viewBox="0 0 20 20" fill="none" xmlns="http://www.w3.org/2000/svg">
<path d="M1.66663 11.6667C1.66663 8.52397 1.66663 6.95262 2.64294 5.97631C3.61925 5 5.1906 5 8.33329 5H11.6666C14.8093 5 16.3807 5 17.357 5.97631C18.3333 6.95262 18.3333 8.52397 18.3333 11.6667C18.3333 14.8094 18.3333 16.3807 17.357 17.357C16.3807 18.3333 14.8093 18.3333 11.6666 18.3333H8.33329C5.1906 18.3333 3.61925 18.3333 2.64294 17.357C1.66663 16.3807 1.66663 14.8094 1.66663 11.6667Z" stroke="#838383"/>
<path d="M13.3333 5.00002C13.3333 3.42867 13.3333 2.643 12.8451 2.15484C12.357 1.66669 11.5713 1.66669 9.99996 1.66669C8.42861 1.66669 7.64294 1.66669 7.15478 2.15484C6.66663 2.643 6.66663 3.42867 6.66663 5.00002" stroke="#838383"/>
<path d="M10 14.4444C10.9205 14.4444 11.6667 13.8226 11.6667 13.0555C11.6667 12.2885 10.9205 11.6666 10 11.6666C9.07957 11.6666 8.33337 11.0448 8.33337 10.2778C8.33337 9.5107 9.07957 8.88887 10 8.88887M10 14.4444C9.07957 14.4444 8.33337 13.8226 8.33337 13.0555M10 14.4444V15M10 8.33331V8.88887M10 8.88887C10.9205 8.88887 11.6667 9.5107 11.6667 10.2778" stroke="#838383" stroke-linecap="round"/>
</svg>
