<svg width="36" height="35" viewBox="0 0 36 35" fill="none" xmlns="http://www.w3.org/2000/svg">
<path d="M22.8626 1.00865H12.7762C4.3708 1.00865 1.00865 4.3708 1.00865 12.7762V22.8626C1.00865 29.2171 2.92507 32.6969 7.4976 33.9914C7.86744 29.6206 12.3559 26.1743 17.8194 26.1743C23.2829 26.1743 27.7714 29.6206 28.1412 33.9914C32.7138 32.6969 34.6302 29.2171 34.6302 22.8626V12.7762C34.6302 4.3708 31.268 1.00865 22.8626 1.00865ZM17.8194 21.4673C14.4909 21.4673 11.8012 18.7608 11.8012 15.4323C11.8012 12.1038 14.4909 9.41403 17.8194 9.41403C21.1479 9.41403 23.8377 12.1038 23.8377 15.4323C23.8377 18.7608 21.1479 21.4673 17.8194 21.4673Z" stroke="#838383" stroke-linecap="round" stroke-linejoin="round"/>
</svg>
