<svg width="34" height="33" viewBox="0 0 34 33" fill="none" xmlns="http://www.w3.org/2000/svg">
<path d="M33.8352 16.9164C33.8362 20.4664 32.7204 23.9268 30.6457 26.8076C28.5711 29.6884 25.6428 31.8435 22.2754 32.9678C21.4177 33.137 21.1132 32.6058 21.1132 32.1541C21.1132 31.5992 21.1335 29.7737 21.1335 27.5136C21.1765 26.9396 21.0962 26.3631 20.8981 25.8227C20.6999 25.2823 20.3886 24.7906 19.9848 24.3804C23.754 23.9609 27.7094 22.5313 27.7094 16.0316C27.7355 14.3511 27.1126 12.7253 25.9702 11.4926C26.4866 10.0329 26.426 8.43109 25.8011 7.01449C25.8011 7.01449 24.3834 6.5594 21.1538 8.74854C18.3811 7.99066 15.4558 7.99066 12.6831 8.74854C9.45188 6.5594 8.0308 7.01449 8.0308 7.01449C7.40733 8.43144 7.34684 10.0326 7.86162 11.4926C6.72065 12.7261 6.09845 14.3515 6.12418 16.0316C6.12418 22.5144 10.0728 23.9659 13.8302 24.3923C13.2151 24.9929 12.8343 25.793 12.7559 26.6491C12.341 26.8827 11.8838 27.0317 11.4109 27.0875C10.938 27.1432 10.4588 27.1046 10.0009 26.9739C9.54302 26.8431 9.11564 26.6228 8.74349 26.3257C8.37134 26.0287 8.06182 25.6607 7.83286 25.2432C7.5619 24.7759 7.18794 24.3765 6.73941 24.0754C6.29089 23.7744 5.77961 23.5795 5.24447 23.5058C5.24447 23.5058 3.59162 23.4838 5.12774 24.5344C6.02846 25.109 6.69392 25.9869 7.0039 27.0094C7.0039 27.0094 7.99527 30.2982 12.7018 29.2764C12.7102 30.689 12.7254 31.7514 12.7254 32.1524C12.7254 32.6007 12.4158 33.1234 11.57 32.9678C8.61508 31.9833 5.98934 30.2022 3.98206 27.8207C1.97477 25.4392 0.663872 22.5498 0.193799 19.4709C-0.276273 16.392 0.112729 13.2431 1.31794 10.3712C2.52316 7.49925 4.4978 5.01576 7.02428 3.19437C9.55077 1.37298 12.531 0.284399 15.6367 0.0485717C18.7423 -0.187256 21.8528 0.438827 24.6253 1.85783C27.3978 3.27684 29.7249 5.43368 31.3499 8.0907C32.975 10.7477 33.835 13.8018 33.8352 16.9164Z" fill="#838383"/>
</svg>
