<svg width="36" height="18" viewBox="0 0 36 18" fill="none" xmlns="http://www.w3.org/2000/svg">
<path fill-rule="evenodd" clip-rule="evenodd" d="M1.25581 15.4884C0.562246 15.4884 0 16.0506 0 16.7442C0 17.4377 0.562246 18 1.25581 18H34.7441C35.4377 18 36 17.4377 36 16.7442C36 16.0506 35.4377 15.4884 34.7441 15.4884H33.0697H28.8837H26.3721V6.69767C26.3721 3.54036 26.3721 1.9617 25.3912 0.980851C24.4104 5.98818e-07 22.8317 0 19.6744 0H16.3256C13.1683 0 11.5896 5.98818e-07 10.6087 0.980851C9.6279 1.9617 9.6279 3.54036 9.6279 6.69767V15.4884H7.11627H2.93023H1.25581ZM13.3953 5.02325C13.3953 4.32968 13.9576 3.76744 14.6511 3.76744H21.3488C22.0424 3.76744 22.6046 4.32968 22.6046 5.02325C22.6046 5.71682 22.0424 6.27906 21.3488 6.27906H14.6511C13.9576 6.27906 13.3953 5.71682 13.3953 5.02325ZM13.3953 10.0465C13.3953 9.35293 13.9576 8.79069 14.6511 8.79069H21.3488C22.0424 8.79069 22.6046 9.35293 22.6046 10.0465C22.6046 10.7401 22.0424 11.3023 21.3488 11.3023H14.6511C13.9576 11.3023 13.3953 10.7401 13.3953 10.0465Z" fill="#FF2E58"/>
</svg>
