<svg width="30" height="32" viewBox="0 0 30 32" fill="none" xmlns="http://www.w3.org/2000/svg">
<g opacity="0.5">
<path d="M8.33333 3.75C9.90468 3.75 10.6904 3.75 11.1785 4.23816C11.6667 4.72631 11.6667 5.51198 11.6667 7.08333L11.6666 10.0707C11.9279 10.1977 12.1552 10.3578 12.357 10.5596C13.0305 11.2331 13.2394 12.1897 13.3042 13.75V16.25C10.1809 16.25 8.61627 16.253 7.64298 17.2263C6.66667 18.2026 6.66667 19.774 6.66667 22.9167V31.6667H0V16.25C0 13.1073 0 11.536 0.976311 10.5596C1.17813 10.3578 1.40537 10.1977 1.66667 10.0707V7.08333C1.66667 5.51198 1.66667 4.72631 2.15482 4.23816C2.64298 3.75 3.42865 3.75 5 3.75H5.41667V1.25C5.41667 0.559644 5.97631 0 6.66667 0C7.35702 0 7.91667 0.559644 7.91667 1.25V3.75H8.33333Z" fill="#FF2E58"/>
<path d="M29.4064 4.99459C28.8128 4.13806 27.7666 3.74572 25.6742 2.96106C21.5821 1.42653 19.536 0.659255 18.1014 1.65349C16.6667 2.64773 16.6667 4.8329 16.6667 9.20324V16.25C19.8094 16.25 21.3807 16.25 22.357 17.2263C23.3333 18.2026 23.3333 19.774 23.3333 22.9167V31.6667H30V9.20324C30 6.9685 30 5.85113 29.4064 4.99459Z" fill="#FF2E58"/>
</g>
</svg>
