<svg width="32" height="32" viewBox="0 0 32 32" fill="none" xmlns="http://www.w3.org/2000/svg">
<path d="M5.51806 5.61028C6.55563 6.41885 6.94486 6.35715 8.89312 6.23247L27.2609 5.17448C27.6503 5.17448 27.3264 4.80167 27.1967 4.73971L24.146 2.62426C23.5616 2.18896 22.7828 1.69043 21.2904 1.81513L3.50488 3.05953C2.85628 3.12123 2.7267 3.43231 2.98504 3.6817L5.51806 5.61028ZM6.62084 9.71653V28.2557C6.62084 29.252 7.13986 29.6248 8.30809 29.5632L28.4942 28.4427C29.6629 28.3811 29.7932 27.6956 29.7932 26.8863V8.47161C29.7932 7.66353 29.4692 7.22774 28.7536 7.28994L7.65894 8.47161C6.88049 8.53436 6.62084 8.9079 6.62084 9.71653ZM26.5485 10.711C26.678 11.2715 26.5485 11.8315 25.9632 11.8945L24.9906 12.0804V25.7671C24.146 26.2025 23.3674 26.4514 22.7185 26.4514C21.6796 26.4514 21.4194 26.1402 20.6412 25.2074L14.2793 15.6266V24.8964L16.2924 25.3321C16.2924 25.3321 16.2924 26.4514 14.6682 26.4514L10.1906 26.7005C10.0606 26.4514 10.1906 25.8299 10.6448 25.7052L11.8132 25.3947V13.1384L10.1909 13.0137C10.0608 12.4532 10.3849 11.6451 11.2942 11.5823L16.0977 11.2718L22.7185 20.9773V12.3914L21.0304 12.2056C20.9009 11.5204 21.4194 11.0229 22.0685 10.9612L26.5485 10.711ZM2.01157 1.37984L20.5114 0.0729768C22.7833 -0.113938 23.3676 0.0112668 24.7956 1.00627L30.7008 4.98782C31.6753 5.6725 32 5.8589 32 6.60528V28.4427C32 29.8111 31.4804 30.6206 29.6632 30.7443L8.17958 31.989C6.81557 32.0514 6.1664 31.8648 5.45209 30.9932L1.10329 25.5807C0.324044 24.5845 0 23.839 0 22.9669V3.55652C0 2.43733 0.519844 1.50378 2.01157 1.37984Z" fill="white" fill-opacity="0.7"/>
</svg>
